<svg width="16" height="16" viewBox="0 0 16 16" fill="none" xmlns="http://www.w3.org/2000/svg">
<path fill-rule="evenodd" clip-rule="evenodd" d="M13.9247 9.42429L9.83887 13.51L9.81957 13.5294C9.41991 13.9291 9.1374 14.1917 8.97207 14.3174C8.64881 14.563 8.32494 14.6858 8.00047 14.6858C7.67594 14.6858 7.35204 14.563 7.02877 14.3174C6.86344 14.1917 6.58094 13.9291 6.18127 13.5294L6.16197 13.51L2.07617 9.42429L2.92467 8.57579L7.01047 12.6615L7.02977 12.6809C7.1673 12.8184 7.29084 12.9383 7.40037 13.0406L7.40037 1.99999L8.60047 1.99999L8.60047 13.0406C8.71001 12.9383 8.83354 12.8184 8.97107 12.6809L8.98067 12.6712L8.99037 12.6615L13.0762 8.57579L13.9247 9.42429Z" fill="black"/>
</svg>
